<svg xmlns="http://www.w3.org/2000/svg" xmlns:xlink="http://www.w3.org/1999/xlink" viewBox="0 0 342.28 197.86"><defs><style>.cls-1{fill:url(#Безымянный_градиент_74);}.cls-2{fill:url(#Безымянный_градиент_48);}.cls-3{fill:url(#Безымянный_градиент_48-2);}.cls-4{fill:#612f97;}.cls-5{fill:url(#Безымянный_градиент_4);}.cls-6{fill:url(#Безымянный_градиент_4-2);}.cls-7{fill:#7438b4;}.cls-8{fill:url(#Безымянный_градиент_10);}.cls-9{fill:url(#Безымянный_градиент_10-2);}.cls-10{fill:url(#Безымянный_градиент_10-3);}.cls-11{fill:#f2cfa1;}.cls-12{fill:#ffdfae;}.cls-13{fill:url(#Безымянный_градиент_9);}.cls-14{fill:url(#Безымянный_градиент_9-2);}.cls-15{fill:url(#Безымянный_градиент_9-3);}.cls-16{fill:#f5bf77;}.cls-17{fill:#ffcd80;}.cls-18{fill:url(#Безымянный_градиент_5);}.cls-19{fill:url(#Безымянный_градиент_5-2);}.cls-20{fill:#5b2497;}.cls-21{fill:url(#Безымянный_градиент_48-3);}.cls-22{fill:url(#Безымянный_градиент_48-4);}.cls-23{fill:url(#Безымянный_градиент_8);}.cls-24{fill:url(#Безымянный_градиент_8-2);}.cls-25{fill:url(#Безымянный_градиент_8-3);}.cls-26{fill:#f2c07f;}.cls-27{fill:#ffd18a;}.cls-28{fill:url(#Безымянный_градиент_7);}.cls-29{fill:url(#Безымянный_градиент_7-2);}.cls-30{fill:url(#Безымянный_градиент_7-3);}.cls-31{fill:#f2cd9d;}.cls-32{fill:#fda;}.cls-33{fill:url(#Безымянный_градиент_4-3);}.cls-34{fill:url(#Безымянный_градиент_4-4);}.cls-35{fill:url(#Безымянный_градиент_6);}.cls-36{fill:url(#Безымянный_градиент_6-2);}.cls-37{fill:url(#Безымянный_градиент_6-3);}.cls-38{fill:#f5bc6f;}.cls-39{fill:#ffca78;}.cls-40{fill:#ffd069;}.cls-41{fill:#ffdbd0;}.cls-42{fill:#aa68d9;}.cls-43{fill:#671aba;}.cls-44{fill:#e0b7ae;}.cls-45{fill:#9658cc;}.cls-46{fill:#e2b352;}.cls-47{fill:#490c99;}</style><linearGradient id="Безымянный_градиент_74" y1="184.02" x2="342.28" y2="184.02" gradientUnits="userSpaceOnUse"><stop offset="0" stop-color="#b783e6"/><stop offset="1" stop-color="#d5a9f3"/></linearGradient><linearGradient id="Безымянный_градиент_48" x1="215.79" y1="-134.49" x2="217.82" y2="-113.84" gradientTransform="matrix(-0.01, 1, 1, 0.01, 158.01, -41.68)" gradientUnits="userSpaceOnUse"><stop offset="0" stop-color="#743ca7"/><stop offset="1" stop-color="#8e57b4"/></linearGradient><linearGradient id="Безымянный_градиент_48-2" x1="207.06" y1="-137.08" x2="228.11" y2="-131.76" xlink:href="#Безымянный_градиент_48"/><linearGradient id="Безымянный_градиент_4" x1="189.21" y1="-188.96" x2="192.41" y2="-156.37" gradientTransform="matrix(-0.48, 0.88, 0.88, 0.48, 286.61, 83.94)" gradientUnits="userSpaceOnUse"><stop offset="0" stop-color="#8846c4"/><stop offset="1" stop-color="#a565d1"/></linearGradient><linearGradient id="Безымянный_градиент_4-2" x1="174.95" y1="-193.17" x2="209.37" y2="-184.46" xlink:href="#Безымянный_градиент_4"/><linearGradient id="Безымянный_градиент_10" x1="628.32" y1="162.48" x2="664.53" y2="162.48" gradientTransform="matrix(-1, 0, 0, 1, 687.79, 0)" gradientUnits="userSpaceOnUse"><stop offset="0" stop-color="#fff9eb"/><stop offset="1" stop-color="#ffdca7"/></linearGradient><linearGradient id="Безымянный_градиент_10-2" x1="618.95" y1="162.48" x2="655.17" y2="162.48" xlink:href="#Безымянный_градиент_10"/><linearGradient id="Безымянный_градиент_10-3" x1="497.36" y1="162.48" x2="533.57" y2="162.48" gradientTransform="translate(-461.73)" xlink:href="#Безымянный_градиент_10"/><linearGradient id="Безымянный_градиент_9" x1="600.32" y1="172.31" x2="634.58" y2="172.31" gradientTransform="matrix(-1, 0, 0, 1, 675.76, 0)" gradientUnits="userSpaceOnUse"><stop offset="0" stop-color="#ffecbc"/><stop offset="1" stop-color="#ffca78"/></linearGradient><linearGradient id="Безымянный_градиент_9-2" x1="591.46" y1="172.31" x2="625.72" y2="172.31" xlink:href="#Безымянный_градиент_9"/><linearGradient id="Безымянный_градиент_9-3" x1="526.65" y1="172.31" x2="560.91" y2="172.31" gradientTransform="translate(-473.76)" xlink:href="#Безымянный_градиент_9"/><linearGradient id="Безымянный_градиент_5" x1="-354.45" y1="116.1" x2="-352.22" y2="138.79" gradientTransform="matrix(0.91, 0.41, -0.41, 0.91, 671.65, 187.71)" gradientUnits="userSpaceOnUse"><stop offset="0" stop-color="#6e2fa7"/><stop offset="1" stop-color="#8849b4"/></linearGradient><linearGradient id="Безымянный_градиент_5-2" x1="-364.04" y1="113.26" x2="-340.91" y2="119.11" xlink:href="#Безымянный_градиент_5"/><linearGradient id="Безымянный_градиент_48-3" x1="134.33" y1="587.52" x2="136.55" y2="610.08" gradientTransform="translate(878.3 -64.6) rotate(80.1)" xlink:href="#Безымянный_градиент_48"/><linearGradient id="Безымянный_градиент_48-4" x1="124.8" y1="584.68" x2="147.8" y2="590.5" gradientTransform="translate(878.3 -64.6) rotate(80.1)" xlink:href="#Безымянный_градиент_48"/><linearGradient id="Безымянный_градиент_8" x1="-188.59" y1="166.57" x2="-156.82" y2="166.57" gradientTransform="translate(423.58)" gradientUnits="userSpaceOnUse"><stop offset="0" stop-color="#fff0ca"/><stop offset="1" stop-color="#ffcd82"/></linearGradient><linearGradient id="Безымянный_градиент_8-2" x1="-196.8" y1="166.57" x2="-165.04" y2="166.57" xlink:href="#Безымянный_градиент_8"/><linearGradient id="Безымянный_градиент_8-3" x1="1317.2" y1="166.57" x2="1348.96" y2="166.57" gradientTransform="matrix(-1, 0, 0, 1, 1573.1, 0)" xlink:href="#Безымянный_градиент_8"/><linearGradient id="Безымянный_градиент_7" x1="-163.37" y1="160.55" x2="-124.99" y2="160.55" gradientTransform="translate(423.58)" gradientUnits="userSpaceOnUse"><stop offset="0" stop-color="#fff9e9"/><stop offset="1" stop-color="#ffdaa2"/></linearGradient><linearGradient id="Безымянный_градиент_7-2" x1="-173.29" y1="160.55" x2="-134.91" y2="160.55" xlink:href="#Безымянный_градиент_7"/><linearGradient id="Безымянный_градиент_7-3" x1="1287.62" y1="160.55" x2="1326" y2="160.55" gradientTransform="matrix(-1, 0, 0, 1, 1573.1, 0)" xlink:href="#Безымянный_градиент_7"/><linearGradient id="Безымянный_градиент_4-3" x1="-223.8" y1="409.33" x2="-220.3" y2="444.94" gradientTransform="matrix(0.62, 0.79, -0.79, 0.62, 772.05, 80.67)" xlink:href="#Безымянный_градиент_4"/><linearGradient id="Безымянный_градиент_4-4" x1="-239.76" y1="405.28" x2="-202.15" y2="414.79" gradientTransform="matrix(0.62, 0.79, -0.79, 0.62, 772.05, 80.67)" xlink:href="#Безымянный_градиент_4"/><linearGradient id="Безымянный_градиент_6" x1="-140.62" y1="168.65" x2="-102.25" y2="168.65" gradientTransform="translate(423.58)" gradientUnits="userSpaceOnUse"><stop offset="0" stop-color="#ffebb8"/><stop offset="1" stop-color="#ffc670"/></linearGradient><linearGradient id="Безымянный_градиент_6-2" x1="-150.55" y1="168.65" x2="-112.17" y2="168.65" xlink:href="#Безымянный_градиент_6"/><linearGradient id="Безымянный_градиент_6-3" x1="1264.88" y1="168.65" x2="1303.25" y2="168.65" gradientTransform="matrix(-1, 0, 0, 1, 1573.1, 0)" xlink:href="#Безымянный_градиент_6"/></defs><g id="Layer_2" data-name="Layer 2"><g id="Layer_1-2" data-name="Layer 1"><ellipse class="cls-1" cx="171.14" cy="184.02" rx="171.14" ry="13.85"/><path class="cls-2" d="M12.11,167a7.15,7.15,0,0,1-2-3.71,1.22,1.22,0,0,0,0-.33.36.36,0,0,0,0,.1,1.72,1.72,0,0,0,.5,1.11c.9.76,2.06-.12,3-.29a4,4,0,0,1,2.44.31c.76.4,1.34,1.14,2.09,1.58a9.19,9.19,0,0,0,3.52.92,26.76,26.76,0,0,1,3.55.67,17.91,17.91,0,0,1,8,4.7,10.85,10.85,0,0,1,1.49,1.68c.45.69.84,1.48,1.22,2.21.68,1.31,1.74,2.61,1.52,4.21a4.76,4.76,0,0,1-1.05,2.09,11.26,11.26,0,0,0-.85,1.61C20.43,177.23,14.4,169.28,12.11,167Z"/><path class="cls-3" d="M9.91,164.18a4.51,4.51,0,0,0,.23-.93,7.15,7.15,0,0,0,2,3.71c2.29,2.32,8.32,10.27,23.45,16.86-.19.4-.37.79-.58,1.18H20.72c-1.07-.72-2.12-1.47-3.12-2.29A16,16,0,0,1,15,180.16c-.36-.47-.6-1-.93-1.47s-.87-.93-1.23-1.46a5.45,5.45,0,0,1-.81-1.94,9.25,9.25,0,0,0-.66-2.73c-.41-.74-1.17-1.29-1.36-2.12s.32-1.77.27-2.67a9.65,9.65,0,0,0-.44-1.72A3.71,3.71,0,0,1,9.91,164.18Z"/><path class="cls-4" d="M36,185c-2.25-1.17-4.46-2.38-6.66-3.72-1.5-.92-2.84-2.07-4.28-3.07a65.39,65.39,0,0,1-5.9-4,33.64,33.64,0,0,1-3.88-3.76c-1.67-2-3.7-3.71-5.23-5.82,0-.06.05-.12.1-.07,3.38,3.15,6.33,6.74,10,9.47,1.95,1.43,4.18,2.38,6.07,3.85a27.85,27.85,0,0,0,4.92,3.56c2.82,1.33,5.77,2.21,8.56,3.53Z"/><path class="cls-5" d="M42.91,184.48a8.13,8.13,0,0,0-.78.52H40c-14.52-20.82-17-36.47-18.46-41.48a13.07,13.07,0,0,1-.12-6.83,1.67,1.67,0,0,0,.19-.5,1.36,1.36,0,0,0,0,.17,3,3,0,0,0-.08,2c.66,1.81,2.73,1.47,4,2a6.1,6.1,0,0,1,2.93,2.36c.72,1.19,1,2.69,1.67,3.91A14.69,14.69,0,0,0,34,150.66a41.82,41.82,0,0,1,4.14,3.76,31.61,31.61,0,0,1,7.27,13.05,19,19,0,0,1,.82,3.57c.14,1.34.13,2.78.14,4.11,0,2.41.53,5.09-.79,7.19A6.62,6.62,0,0,1,42.91,184.48Z"/><path class="cls-6" d="M40,185H26.38a31,31,0,0,1-3.91-5.84,78.58,78.58,0,0,1-4.12-8.93,28.62,28.62,0,0,1-1.67-5.67c-.16-.95-.13-1.89-.24-2.83s-.52-2-.64-3a9.88,9.88,0,0,1,.23-3.39A16.31,16.31,0,0,0,17,150.9c-.05-1.38-.67-2.78-.37-4.1s1.56-2.26,2.09-3.57a19.54,19.54,0,0,0,.56-2.8,5.93,5.93,0,0,1,1.28-2.61,5.78,5.78,0,0,0,.91-1.13,13.07,13.07,0,0,0,.12,6.83C23,148.53,25.49,164.18,40,185Z"/><path class="cls-7" d="M38.66,185c-1.47-2.44-2.91-4.92-4.28-7.48s-2.31-5.19-3.52-7.76c-1.64-3.5-3.68-6.64-5-10.33A60.3,60.3,0,0,1,23.32,151c-.86-4.16-2.36-8.21-2.95-12.42,0-.12.14-.13.18,0,2.3,7.16,3.75,14.61,6.77,21.44,1.57,3.57,3.82,6.7,5.31,10.29,1.23,3,2.23,6.29,4,9,1.33,2,2.78,3.88,4.24,5.74Z"/><polygon class="cls-8" points="63.05 139.92 66.33 185.04 30.11 185.04 33.39 139.92 63.05 139.92"/><polygon class="cls-9" points="65.55 139.92 68.83 185.04 32.62 185.04 35.9 139.92 65.55 139.92"/><polygon class="cls-10" points="38.91 139.92 35.63 185.04 71.84 185.04 68.56 139.92 38.91 139.92"/><path class="cls-11" d="M38.46,139.92a10.07,10.07,0,0,1,20.14,0h1a11.08,11.08,0,0,0-22.15,0Z"/><path class="cls-12" d="M43.27,139.92a10.07,10.07,0,0,1,20.14,0h1a11.08,11.08,0,0,0-22.15,0Z"/><polygon class="cls-13" points="78.83 156.8 81.93 187.81 47.67 187.81 50.77 156.8 78.83 156.8"/><polygon class="cls-14" points="81.2 156.8 84.3 187.81 50.04 187.81 53.15 156.8 81.2 156.8"/><polygon class="cls-15" points="55.99 156.8 52.89 187.81 87.15 187.81 84.05 156.8 55.99 156.8"/><path class="cls-16" d="M55.57,156.8a9.53,9.53,0,0,1,19.05,0h.95a10.48,10.48,0,0,0-20.95,0Z"/><path class="cls-17" d="M60.12,156.8a9.53,9.53,0,0,1,19.05,0h1a10.48,10.48,0,0,0-21,0Z"/><path class="cls-18" d="M299,135.31a7.75,7.75,0,0,0-2.81-3.66,1.14,1.14,0,0,1-.32-.18l.1.07c.38.3.72.48.87,1,.36,1.26-1.06,2-1.63,2.84a4.4,4.4,0,0,0-.81,2.57c.06,1,.53,1.86.62,2.82a9.87,9.87,0,0,1-.68,3.94,29.64,29.64,0,0,0-.95,3.85,19.6,19.6,0,0,0,1,10.17,11.6,11.6,0,0,0,1,2.25,25.82,25.82,0,0,0,1.65,2.24c1,1.28,1.82,2.92,3.52,3.44a5.29,5.29,0,0,0,2.56-.09,11.33,11.33,0,0,1,2-.13C305.51,148.32,300.31,138.65,299,135.31Z"/><path class="cls-19" d="M313.34,160.66l-3.12,4.61a6.71,6.71,0,0,1-2.91,1.1,18.77,18.77,0,0,1-2.12.07c.32-18.12-4.88-27.79-6.15-31.13a7.75,7.75,0,0,0-2.81-3.66,5,5,0,0,0,1,.19,4.12,4.12,0,0,1,1.9.8,10.42,10.42,0,0,0,1.52,1.22c.87.46,2,.35,2.78.95s1,1.58,1.51,2.33a10.27,10.27,0,0,0,2.42,1.9,6,6,0,0,1,1.57,1.69c.37.61.53,1.3.9,1.9s.74,1,1,1.6a17.38,17.38,0,0,1,1.37,3.75,47.5,47.5,0,0,1,1.23,6.57,17.25,17.25,0,0,1-.15,6A.19.19,0,0,0,313.34,160.66Z"/><path class="cls-20" d="M305.5,159.05c.49,4,.69,7.93.85,11.93l-1.75,2.58c-.44-4.21.3-8.35.25-12.57a30.58,30.58,0,0,0-1.31-6.54c-.61-2.57-.55-5.24-1.08-7.83-1-5-3.28-9.55-4.89-14.37,0-.07.08-.14.12-.07,1.42,2.49,2.2,5.31,3.43,7.89a35,35,0,0,1,2,5.59,71.64,71.64,0,0,1,1.28,7.71C304.73,155.27,305.27,157.13,305.5,159.05Z"/><path class="cls-21" d="M332.4,160.12a7.8,7.8,0,0,0,1.44-4.36,1.46,1.46,0,0,1,0-.36.49.49,0,0,1,0,.12,1.82,1.82,0,0,1-.33,1.28c-.83,1-2.24.24-3.25.23a4.34,4.34,0,0,0-2.56.77c-.75.58-1.24,1.48-2,2.08a10,10,0,0,1-3.62,1.64,27.35,27.35,0,0,0-3.7,1.36,19.58,19.58,0,0,0-7.8,6.52,11.5,11.5,0,0,0-1.3,2.08c-.36.82-.64,1.75-.92,2.61-.49,1.53-1.39,3.13-.87,4.81A5.21,5.21,0,0,0,309,181a12.25,12.25,0,0,1,1.21,1.58C325.29,172.7,330.35,163,332.4,160.12Z"/><path class="cls-22" d="M319.49,186H314a6.57,6.57,0,0,1-2.53-1.79,17,17,0,0,1-1.24-1.69c15.1-9.84,20.16-19.51,22.21-22.42a7.8,7.8,0,0,0,1.44-4.36,4.86,4.86,0,0,0,.43,1,4,4,0,0,1,.39,2,11.51,11.51,0,0,0-.16,1.93c.12,1,.83,1.85.78,2.83s-.77,1.66-1.08,2.53a10.07,10.07,0,0,0-.22,3.06,6,6,0,0,1-.51,2.24c-.3.64-.77,1.15-1.07,1.79s-.43,1.19-.73,1.75a17.15,17.15,0,0,1-2.33,3.22,47.39,47.39,0,0,1-4.72,4.68,17.13,17.13,0,0,1-5.06,3.24Z"/><path class="cls-4" d="M316.45,178.67c-3,2.63-6.14,5-9.35,7.35H304c3.22-2.72,7-4.41,10.49-6.81a30.53,30.53,0,0,0,4.65-4.72c1.78-1.93,4-3.37,5.85-5.26,3.51-3.61,6-8,9.11-12,0-.06.15,0,.12.06-1.26,2.56-3.14,4.77-4.58,7.22a36,36,0,0,1-3.49,4.75c-1.68,2-3.77,3.53-5.64,5.36C319.14,175.93,317.9,177.41,316.45,178.67Z"/><polygon class="cls-23" points="231.86 152.19 228.98 180.94 260.74 180.94 257.86 152.19 231.86 152.19"/><polygon class="cls-24" points="229.66 152.19 226.78 180.94 258.54 180.94 255.66 152.19 229.66 152.19"/><polygon class="cls-25" points="253.03 152.19 255.9 180.94 224.14 180.94 227.02 152.19 253.03 152.19"/><path class="cls-26" d="M253.42,152.2a8.83,8.83,0,0,0-17.66,0h-.89a9.72,9.72,0,0,1,19.43,0Z"/><path class="cls-27" d="M249.2,152.2a8.83,8.83,0,0,0-17.66,0h-.88a9.71,9.71,0,0,1,19.42,0Z"/><polygon class="cls-28" points="256.42 136.64 252.94 184.46 291.32 184.46 287.85 136.64 256.42 136.64"/><polygon class="cls-29" points="253.76 136.64 250.29 184.46 288.66 184.46 285.19 136.64 253.76 136.64"/><polygon class="cls-30" points="282 136.64 285.47 184.46 247.1 184.46 250.57 136.64 282 136.64"/><path class="cls-31" d="M282.47,136.65a10.67,10.67,0,0,0-21.34,0h-1.06a11.74,11.74,0,0,1,23.47,0Z"/><path class="cls-32" d="M277.38,136.65a10.67,10.67,0,0,0-21.34,0H255a11.74,11.74,0,0,1,23.48,0Z"/><path class="cls-33" d="M318,136.57a14.29,14.29,0,0,0-1.12-7.38,1.92,1.92,0,0,1-.29-.5,1.34,1.34,0,0,1,.07.18,3.22,3.22,0,0,1,.44,2.09c-.38,2.07-2.67,2.08-4,2.84a6.69,6.69,0,0,0-2.73,3.08c-.56,1.4-.57,3.07-1.09,4.51a16,16,0,0,1-3.49,5.14,45.26,45.26,0,0,0-3.77,4.8,34.44,34.44,0,0,0-5.48,15.39,20.53,20.53,0,0,0-.23,4c.09,1.46.36,3,.59,4.45.42,2.59.36,5.58,2.16,7.6a7.21,7.21,0,0,0,3.31,1.81,15.53,15.53,0,0,1,2.6,1.33C317.49,160.14,317.35,142.33,318,136.57Z"/><path class="cls-34" d="M326.26,164.78a84.63,84.63,0,0,1-2.81,10.36,29.17,29.17,0,0,1-4.22,8.55,13,13,0,0,1-2.23,2.22H305c12.5-25.77,12.36-43.58,13-49.34a14.29,14.29,0,0,0-1.12-7.38,6.63,6.63,0,0,0,1.19,1.05,6.7,6.7,0,0,1,1.86,2.59,19.88,19.88,0,0,0,1.11,2.91c.8,1.32,2.3,2,2.89,3.47s.15,3,.35,4.48c.21,1.65,1.15,3.05,1.79,4.56a10.85,10.85,0,0,1,.87,3.62c.06,1.14-.2,2.25-.14,3.4s.26,2,.26,3.09A30.88,30.88,0,0,1,326.26,164.78Z"/><path class="cls-7" d="M316.22,154.5c-.75,4.21-2.38,8-3.52,12-.84,3-1.4,6.06-2.38,9-1.2,3.54-2.49,7-3.85,10.37h-2.42c1.43-2.65,2.89-5.29,4.14-8.09,1.44-3.2,1.92-6.91,2.71-10.38.94-4.14,2.8-7.92,3.85-12.05,2-7.91,2.23-16.2,3.41-24.33a.1.1,0,0,1,.19,0c.13,4.64-.76,9.27-.92,13.91A66.4,66.4,0,0,1,316.22,154.5Z"/><polygon class="cls-35" points="279.17 151.29 275.69 186.02 314.07 186.02 310.59 151.29 279.17 151.29"/><polygon class="cls-36" points="276.51 151.29 273.03 186.02 311.41 186.02 307.93 151.29 276.51 151.29"/><polygon class="cls-37" points="304.74 151.29 308.22 186.02 269.84 186.02 273.32 151.29 304.74 151.29"/><path class="cls-38" d="M305.22,151.29a10.67,10.67,0,0,0-21.34,0h-1.07a11.74,11.74,0,0,1,23.48,0Z"/><path class="cls-39" d="M300.13,151.29a10.68,10.68,0,0,0-21.35,0h-1.06a11.74,11.74,0,0,1,23.47,0Z"/><path class="cls-40" d="M122.75,40.53a10.59,10.59,0,0,0,6,5,23.65,23.65,0,0,0,7.85,1.21,13.66,13.66,0,0,0,4.64-.5,5.25,5.25,0,0,0,3.35-3,8,8,0,0,0-.2-4.4q-1.43-6-2.86-11.93a9.92,9.92,0,0,0-1.72-4.21c-3.41-4.09-10.31-1.24-13.09,2.19C123.4,28.89,120.26,35.45,122.75,40.53Z"/><path class="cls-41" d="M88.45,125.44a11,11,0,0,1-.85.82,6.91,6.91,0,0,0-.89,1.25l-2.16,3.61A12.56,12.56,0,0,0,82.81,135c-.26,1.28.11,2.91,1.35,3.31s2.58-.83,3.39-2a48.93,48.93,0,0,0,5.38-10.16,5.87,5.87,0,0,0,.53-2.2,2.27,2.27,0,0,0-.95-2C89.7,120.21,89.45,124.19,88.45,125.44Z"/><path class="cls-41" d="M137.47,143c-.2.46-.51.86-.7,1.33a5,5,0,0,0,.51,3.85,14.94,14.94,0,0,0,4.59,6.12,2.57,2.57,0,0,0,1.21.55c1.15.1,1.81-.29,1.73-1.45a15.12,15.12,0,0,0-1.34-3.84c-1.5-3.64-.22-8.36-2.11-11.81a2.88,2.88,0,0,0-.81-1C136.55,133.81,137.85,142.09,137.47,143Z"/><path class="cls-41" d="M98.82,8.34a2.85,2.85,0,0,0-2-1c-.23,0-.5.07-.69-.08a.52.52,0,0,1,0-.7,1.5,1.5,0,0,1,.65-.42,4.92,4.92,0,0,0-3-1.44L90,3.85a3.08,3.08,0,0,1,3.28-.54L89.89,1.55c0-.42.59-.52,1-.42a10.44,10.44,0,0,1,3.16,1.41,12.23,12.23,0,0,1-1.87-1.49c-.29-.27-.55-.79-.21-1a.67.67,0,0,1,.58.05,5.5,5.5,0,0,1,1.29.84c0-.23.23-.41.46-.41a1.14,1.14,0,0,1,.62.26c2.17,1.48,3.5,4,5.78,5.32.62.36,1.35.67,1.63,1.33a3.71,3.71,0,0,1,.17.94,6.8,6.8,0,0,0,1.34,3.43c-.14-.19-1.33.14-1.6.07-.51-.13-.63-.38-1-.81A26.5,26.5,0,0,0,98.82,8.34Z"/><path class="cls-41" d="M170.14,16.81a2.9,2.9,0,0,1,2.1-.73c.23.05.49.15.69,0a.52.52,0,0,0,.13-.7,1.52,1.52,0,0,0-.59-.5,5,5,0,0,1,3.19-1l3.82-.27a3.1,3.1,0,0,0-3.16-1L180,11.4c.12-.41-.5-.6-.92-.56a10.45,10.45,0,0,0-3.34.93,13,13,0,0,0,2.08-1.19c.32-.23.65-.71.34-1a.62.62,0,0,0-.58,0,5.16,5.16,0,0,0-1.39.64.43.43,0,0,0-.4-.47,1.16,1.16,0,0,0-.65.16c-2.36,1.15-4,3.47-6.49,4.43a3.34,3.34,0,0,0-1.81,1.08,3.4,3.4,0,0,0-.3.9,6.86,6.86,0,0,1-1.83,3.2c.17-.17,1.3.33,1.57.3.53-.05.68-.29,1.08-.66A28.9,28.9,0,0,1,170.14,16.81Z"/><path class="cls-42" d="M103.86,8.63a86.11,86.11,0,0,0,13.66,20,53.58,53.58,0,0,0,13.21,11.09c2.58,1.45,5.46,2.62,8.41,2.38A13.25,13.25,0,0,0,147.19,38a62.9,62.9,0,0,0,5.71-7.26,141.13,141.13,0,0,1,12.86-14.37,5.27,5.27,0,0,0,2.49,3.19,157.9,157.9,0,0,1-18,25,29.77,29.77,0,0,0-4.45,5.87A27.54,27.54,0,0,0,143.53,58q-1.29,6.68-2.57,13.34c-3.24,1.47-7.06.28-10.21-1.38s-6.16-3.82-9.67-4.39c1.33-4.28,1.18-8.87.76-13.34-.32-3.35-.82-6.77-2.42-9.74-1.5-2.77-3.87-5-6-7.32A68.9,68.9,0,0,1,104.09,21c-1.28-2.47-2.49-5-3.65-7.5-.87-1.88-1.08-1.65.41-2.69C101.17,10.6,104.11,9.14,103.86,8.63Z"/><path class="cls-40" d="M121.35,63.82C115.7,75,111.27,86.11,106.06,97.51a22.91,22.91,0,0,1-1.7,3.26,21.45,21.45,0,0,1-1.73,2.2c-4.37,5.15-8.54,10.48-12.7,15.8-.9,1.15-2.92,4-2.92,4s4.12,3.67,6.51,4.39q16.1-18.23,33.51-35.22c1.28,4.11,2.17,8.25,3.45,12.37a85.47,85.47,0,0,1,2.55,9.41c1.72,9,.58,18.36,2.28,27.36a10.56,10.56,0,0,0,8.12-.35c-.28-9.78.1-19.61.52-29.38a115.76,115.76,0,0,0,.12-14.06c-.28-3.63-.95-7.22-1.4-10.84-.61-5-1.46-11.14-1.25-16.14a14.56,14.56,0,0,1-10.49-.65C127.15,67.89,121.16,64.23,121.35,63.82Z"/><path class="cls-43" d="M85.08,127.72c-.6.84-1,1.8-1.55,2.68-.89,1.48-2.08,2.76-3,4.25a11.58,11.58,0,0,0-1.42,7.64,3.46,3.46,0,0,0,1.45,2.59,2.86,2.86,0,0,0,3.38-1,12.85,12.85,0,0,0,1.58-3.47A15.8,15.8,0,0,1,88.15,136c.27-.33.58-.73.48-1.15a1.17,1.17,0,0,0-.38-.56,6.13,6.13,0,0,0-4.12-1.69c-.08,0,3.13-6,3.27-6.46C86.46,126.07,85.61,127,85.08,127.72Z"/><path class="cls-43" d="M140.26,156.35c1.7,2.78,3.81,5.84,7,6.28a1,1,0,0,0,1.25-1c.47-4.22-4.27-7.49-4.39-11.74a7.62,7.62,0,0,0-3.64,1,22.1,22.1,0,0,1-2.49-4.21,13.3,13.3,0,0,1-1-3.07s-2.21,1.58-2.54,2.41c-.51,1.3,1.7,3.78,2.41,5Z"/><path class="cls-41" d="M130.91,41.43a7.84,7.84,0,0,0,.24,1.45,3.93,3.93,0,0,0,2.54,2.64,3.7,3.7,0,0,0,3.55-.8c1.48-1.39,1.46-3.7,1.34-5.73-.06-1.14-.13-2.29-.2-3.44a5.11,5.11,0,0,0-.26-1.6,3.26,3.26,0,0,0-1.53-1.68,4.11,4.11,0,0,0-3.51-.17C129.14,33.75,130.59,38.16,130.91,41.43Z"/><path class="cls-41" d="M127,26.49a11.32,11.32,0,0,0-.23,4.6,11.88,11.88,0,0,0,2.78,6.56,6.82,6.82,0,0,0,6.55,2.15,7.47,7.47,0,0,0,4.64-4.53,11.31,11.31,0,0,0-.22-9c-1.15-2.42-4.2-5.9-7.17-5.89C130.55,20.39,127.65,24.13,127,26.49Z"/><path class="cls-43" d="M130.58,27.35c-2.18,3-3,3.73-5.67,4.63a9.86,9.86,0,0,1,1-11.25,11.23,11.23,0,0,1,11.58-3.61,6.22,6.22,0,0,1,2.26,1.12c1.39,1.17,1.88,3.08,2.29,4.86.49,2.13,1.58,3.88,2.07,6a4.37,4.37,0,0,1-5-1.25,7.27,7.27,0,0,1-2.38-4.24A9.4,9.4,0,0,0,130.58,27.35Z"/><path class="cls-43" d="M128.64,16.65a8.82,8.82,0,0,1,13.3,10.18c-1.32-1.86-2.75-3.82-4.86-4.72a8.45,8.45,0,0,0-6.66.36,31.71,31.71,0,0,0-5.5,3.7C125,22.42,125.17,19,128.64,16.65Z"/><path class="cls-43" d="M144.22,23.28a11.14,11.14,0,0,1,.43,8.34c0,.09-3.85-3.6-4.15-4a16.82,16.82,0,0,1-2.63-5.5C136.38,16.35,142.9,20.71,144.22,23.28Z"/><path class="cls-43" d="M130.67,38.77a67.72,67.72,0,0,1,.86,8.89,3.69,3.69,0,0,1-.71,2.46c-.79.85-2.13.83-3.28.65-3.15-.52-6-1.74-6.94-4.79-1.19-3.71-1.36-5,.06-7.9a11,11,0,0,1,0-9.74c2.29-5.27,3.12-6.38,6.1-6.63.28,0,1.42,7.3,1.36,8A12,12,0,0,0,130.67,38.77Z"/><path class="cls-43" d="M122,24.08c1.07-2.35,3.91-5.67,6.39-6.37.15,2.39-.44,6.42-1.68,8.47a20.43,20.43,0,0,1-4.78,4.9A8.35,8.35,0,0,1,122,24.08Z"/><path class="cls-43" d="M138.53,38.68s-.36,6.11-.14,8.75c.19,2.2,2.05,3.19,4.11,2.38,2.32-.9,3.35-2.1,4.77-4.11,2.24-3.14,3.53-8.27.52-10.67,1.14-3.28.08-7.4-1.75-10.35s-3.74-6.43-7.19-6.86c.84,3.38.43,7.43,1.36,10.77A11.21,11.21,0,0,1,138.53,38.68Z"/><path class="cls-44" d="M131.36,39.27c1.52,1.39,5,1.84,6.23-.2,0,0,0-.08-.05-.06a6,6,0,0,1-6.18.25s0,0,0,0Z"/><path class="cls-45" d="M109.21,26.11a8.71,8.71,0,0,0,1.23.13,4.21,4.21,0,0,0,1.25-.53,3.65,3.65,0,0,0,.87-.84,1.32,1.32,0,0,0,.26-.36s.09-.37.08-.37,0-.1,0-.11h-.07a.08.08,0,0,0-.1,0,3.52,3.52,0,0,1-1.57,1.14,7.41,7.41,0,0,1-2,.82s0,.08,0,.09Z"/><path class="cls-45" d="M110.64,27.53a4.64,4.64,0,0,0,1.75-1,3.08,3.08,0,0,0,.6-.84,6,6,0,0,0,.45-.92.11.11,0,0,0-.17-.1,1.85,1.85,0,0,0-.54.61,4.24,4.24,0,0,1-.75.95,10.22,10.22,0,0,0-1.41,1.21.06.06,0,0,0,.07.09Z"/><path class="cls-45" d="M155.58,28.93c.17.11.25.38.4.53s.27.16.39.26.22.24.36.34a2.26,2.26,0,0,0,1.87.13.1.1,0,0,0,0-.19c-.3-.09-.58-.23-.88-.32a3.86,3.86,0,0,1-.49-.1,2.51,2.51,0,0,1-.48-.36c-.21-.16-.43-.26-.63-.43a.65.65,0,0,0-.45-.17.17.17,0,0,0-.09.31Z"/><path class="cls-45" d="M156.24,28.22c0,.24.17.33.36.43a7.77,7.77,0,0,0,1.13.44,2.74,2.74,0,0,0,2.2-.24c.07,0,0-.13,0-.15a2.84,2.84,0,0,0-.77-.08A4.91,4.91,0,0,1,158,28.5c-.56-.14-1-.49-1.62-.4l.23.09,0-.06a.18.18,0,0,0-.34.09Z"/><path class="cls-45" d="M128.38,64.63c2.89.18,5.58.15,7.89-1.84,2-1.76,2.9-4.8,5-6.46.06,0,0-.14-.08-.1-1.69.86-2.87,3.2-4.16,4.55a12.79,12.79,0,0,1-8.69,3.84Z"/><path class="cls-45" d="M134.13,65.2a4.85,4.85,0,0,0,1.88-.57,11.47,11.47,0,0,0,1.42-1.17c.55-.5,1.82-1.6,1.89-2.41,0-.09-.12-.12-.17,0a9.77,9.77,0,0,1-2.1,2.06,10.43,10.43,0,0,1-3,1.94.1.1,0,0,0,0,.19Z"/><path class="cls-46" d="M100.27,110.75a5,5,0,0,0,2.93,1c1.57.09,2.37.16,3.55-.91a.09.09,0,0,0-.09-.16,11,11,0,0,1-6.26-.16c-.13,0-.23.15-.13.23Z"/><path class="cls-46" d="M100,111.77c1.12,1.37,3.46,2.61,4.92,1a.17.17,0,0,0-.16-.28c-1,.14-1.65.64-2.72.14a7.79,7.79,0,0,1-2-1,.06.06,0,1,0-.08.08Z"/><path class="cls-46" d="M127.94,90.78c2.18-2.09,3.55-5.16,4.55-7.94,1.06-2.93,2.29-6.33,2.15-9.51,0-.07-.09-.08-.12,0-1,2.75-1.24,5.65-2.38,8.39-1.22,2.94-2.24,6.48-4.27,9a0,0,0,0,0,.07.07Z"/><path class="cls-46" d="M128.91,90.86c0,.38.26.61.46.91A12.3,12.3,0,0,0,130,93a4.62,4.62,0,0,0,2.76,1.5c.19,0,.28-.28.1-.36a7,7,0,0,1-1-.69c-.37-.24-.76-.43-1.11-.69a6.43,6.43,0,0,1-.83-.82c-.31-.3-.84-.6-.88-1.09a.07.07,0,0,0-.14,0Z"/><path class="cls-46" d="M129.52,90.56c1.71,1.39,3.76,2.34,5.84,1.13a.13.13,0,0,0-.06-.24,11.64,11.64,0,0,1-2.89,0,28.6,28.6,0,0,1-2.81-1c-.08,0-.14.09-.08.14Z"/><path class="cls-46" d="M118,73.84c4.24,1.55,8.18-.54,10.19-4.53,0,0,0-.11-.08-.07-1.48,1.49-2.84,3.05-4.85,3.87a11.21,11.21,0,0,1-5.25.67,0,0,0,0,0,0,.06Z"/><path class="cls-46" d="M138.35,72.71a5,5,0,0,0,.18,2.87c.26,1.31,1.07,2.91,2.61,3a.1.1,0,0,0,.05-.18,7.11,7.11,0,0,1-1.35-1.5,14.51,14.51,0,0,1-.84-1.95,3.34,3.34,0,0,1-.55-2.18.05.05,0,0,0-.1,0Z"/><path class="cls-46" d="M138,116.88c1.1.22,1.77,1.31,2.9,1.43.6.07,1.61.1,1.85-.6,0,0,0-.13-.09-.12a5.08,5.08,0,0,1-1.1-.06,4.65,4.65,0,0,1-.83-.07c-.4-.1-.57-.34-.93-.5a2,2,0,0,0-1.8-.13s0,0,0,0Z"/><path class="cls-46" d="M138.35,118.37a12.69,12.69,0,0,0,2.35,1.2,3.41,3.41,0,0,0,1.1.12,2.35,2.35,0,0,0,.71-.35c.11,0,.06-.19,0-.22a3,3,0,0,0-.68-.06c-.3,0-.59-.13-.89-.17-.86-.13-1.63-.59-2.48-.7-.1,0-.2.13-.08.18Z"/><path class="cls-46" d="M104.89,101.75c1.45,0,2.65.18,4-.53A11.48,11.48,0,0,0,112,98.41a.06.06,0,0,0-.07-.09c-1.15.68-2.14,1.53-3.34,2.14a16.37,16.37,0,0,1-3.68,1.21s0,.08,0,.08Z"/><path class="cls-47" d="M80.42,137a7.43,7.43,0,0,0-.64,2.74,3.87,3.87,0,0,0,.5,3.37c1.51,1.83,3.09.13,3.63-1.45,0,0,0,0,0,0a3.72,3.72,0,0,1-1.18,1.4c-1.39.77-2.24-.68-2.46-1.91-.17-1-.29-3.21.2-4.13Z"/><path class="cls-47" d="M135.47,147a99.39,99.39,0,0,1,5.72,9.72,9.24,9.24,0,0,0,2.79,3.47c1.13.81,2.2,1.8,3.62,1.56a0,0,0,0,0,0-.09c-1.81-.11-3.62-2.36-4.69-3.72a52.68,52.68,0,0,1-3.43-5,57.16,57.16,0,0,0-4-5.95Z"/><path class="cls-41" d="M193.83,84.62a3.24,3.24,0,0,0-1.53,2c0,.27,0,.58-.21.76a.61.61,0,0,1-.8-.1,1.71,1.71,0,0,1-.34-.82c-1.08,1.57-2,3-2.78,4-1,1.34-1.63,3-2.11,3-.78-.05.34-2.54,1.08-3.65-1.17,1.76-2.37,3.54-2.67,3.44-.49,0-.43-.69-.23-1.14a11.5,11.5,0,0,1,2.18-3.29,15.33,15.33,0,0,1-2,1.83c-.36.27-1,.46-1.16,0a.71.71,0,0,1,.17-.64,5.75,5.75,0,0,1,1.17-1.29.49.49,0,0,1-.36-.59,1.3,1.3,0,0,1,.4-.66c2.08-2.15,5.18-3.16,7.08-5.47.52-.64,1-1.4,1.81-1.59a3.9,3.9,0,0,1,1.08,0,7.84,7.84,0,0,0,4.11-.87c-.24.13-.1,1.53-.22,1.82-.25.55-.56.64-1.1.94A29.71,29.71,0,0,0,193.83,84.62Z"/><path class="cls-41" d="M196.85,22.25A7.26,7.26,0,0,0,196,21a6.68,6.68,0,0,0-1.79-1.42c-1.85-1.11-3.88-1.89-5.81-2.87-.21-.11-.45-.25-.51-.49s.23-.51.41-.36a1.86,1.86,0,0,1-.7-.32.66.66,0,0,1-.25-.68.41.41,0,0,1,.62-.2c-.36-.14-.79-.39-.74-.77a.6.6,0,0,1,.6-.45,1.69,1.69,0,0,1,.78.24l7.85,3.89L195.6,16c-.07-.13-.14-.3,0-.42a.32.32,0,0,1,.21-.1,1.82,1.82,0,0,1,1.86.78c.27.44.36,1,.67,1.39.55.74,1.73.92,2.08,1.78a2.89,2.89,0,0,1,.12,1.1,12.72,12.72,0,0,0,1.34,4.75c-.69.4-2.63,1.61-3.3.82a9,9,0,0,1-.76-1.92C197.49,23.49,197.19,22.86,196.85,22.25Z"/><path class="cls-41" d="M185,111.45a16.06,16.06,0,0,0,1.52,3.15,2.75,2.75,0,0,0,3.05,1.16,2.44,2.44,0,0,0,1.35-1.73,5.13,5.13,0,0,0-.1-2.27c-.62-2.65-2.19-5-2.86-7.65a15.48,15.48,0,0,0-.78-2.78A2.79,2.79,0,0,0,185,99.61a3.59,3.59,0,0,0-2.78,1.69c-1.2,1.5-2.87,3.51-1.6,5.33S183.94,109.22,185,111.45Z"/><path class="cls-41" d="M209.5,169.8a15.36,15.36,0,0,1-.89,2.24,6.45,6.45,0,0,0,3.74,8.07,2.07,2.07,0,0,0,1.67,0c.75-.41.86-1.43.87-2.29q.11-6,.22-11.93a5.36,5.36,0,0,0-.73-3.45,2.9,2.9,0,0,0-4.78.65C208.74,165,210,167.77,209.5,169.8Z"/><path class="cls-43" d="M206.71,88.72a49.55,49.55,0,0,0-12.08,28.19q-2-3.93-4.06-7.86a.65.65,0,0,0-1-.35,16.13,16.13,0,0,0-4,2.44,2.25,2.25,0,0,0-.8,1,2.45,2.45,0,0,0,.11,1.31l3.78,13.88a39.46,39.46,0,0,0,2.07,6.19c.91,2,2.4,4,4.55,4.35,2.84.51,5.33-2,6.73-4.5,3.94-7.12,3.74-16.13,8.37-22.83.92,7,.62,13.78.23,20.78l-1.89,34.37a13.46,13.46,0,0,0,7.38,1.63q1.67-12.59,3.68-25.14c.61-3.76,1.23-7.53,2.14-11.24,1.38-5.62,3.39-11.09,4.3-16.8a87.83,87.83,0,0,0,.72-14.32c-2.4-1.4-4.86-3.07-7.33-4.34C215.45,93.34,210.87,90.87,206.71,88.72Z"/><path class="cls-40" d="M201.79,22.67c1.29,3.94,3.72,7.39,5.53,11.12,2,4.05,3.15,8.42,4.76,12.62s3.72,8.34,7.1,11.31a6,6,0,0,0,2.63,1.51,8,8,0,0,0,3.08-.19,32.93,32.93,0,0,1,11.29,0,5.75,5.75,0,0,1,3.7,1.71,5.34,5.34,0,0,1,.93,3.16c.2,5.1-2,10-4.16,14.59-3.59,7.69-7.24,15.47-8.72,23.83a34.45,34.45,0,0,1-23.5-11.78A30.85,30.85,0,0,1,209.82,82a82.68,82.68,0,0,1-14.27,3c0-1.24-.16-4.29-.17-5.52,4.9-1.89,9.93-3.27,14.83-5.15,1.06-.41,2.82-1,2.82-1s.31-3.27-.24-4.34-1.37-2-2-3A19.69,19.69,0,0,1,209,61.9q-3.8-11-7.37-22.14-1.77-5.5-3.48-11c-.38-1.21-1.25-4.15-1.25-4.15A12.27,12.27,0,0,0,201.79,22.67Z"/><path class="cls-40" d="M183.31,103.71a7.09,7.09,0,0,0-.64,5.2,15.09,15.09,0,0,0-5,2,14.4,14.4,0,0,1-2.65,1.56,3,3,0,0,1-2.92-.34,2.74,2.74,0,0,1-.65-2.73,6.65,6.65,0,0,1,1.52-2.51,47.51,47.51,0,0,1,4.6-4.37,61.15,61.15,0,0,1,5.93-4.73,2.14,2.14,0,0,1,1.31-.5,1.89,1.89,0,0,1,1,.5c1.08.88,2.37,2.51,2.36,4C186.19,101.65,184.49,101.81,183.31,103.71Z"/><path class="cls-40" d="M206.35,174.12a3.53,3.53,0,0,0-.5,3.13,5.77,5.77,0,0,0,1.09,1.56,20.88,20.88,0,0,1,3.44,5.8,8.2,8.2,0,0,0,1.21,2.42,5.55,5.55,0,0,0,3,1.55,14.3,14.3,0,0,0,3.57.37,2.76,2.76,0,0,0,1.52-.36c1-.68.76-2.26,0-3.19s-1.84-1.54-2.62-2.45a8,8,0,0,1-1.42-2.81,25,25,0,0,1-.9-3.63,4.37,4.37,0,0,1-4.36-.4,5,5,0,0,1-1.73-3c-.23-.79-.08-.92-.84-.54A4.84,4.84,0,0,0,206.35,174.12Z"/><path class="cls-41" d="M211.08,50a11.84,11.84,0,0,0,3.2,8.59C216.82,61.2,221,61.39,223,58c.81-1.37,2.27-5.1,2.23-6.69-.09-3.92-2.66-7.95-7.59-8.09C214.32,43.11,211.33,46.83,211.08,50Z"/><path class="cls-41" d="M224.35,62.13a4.61,4.61,0,0,0,3.86-3.62,1.91,1.91,0,0,0,0-.95,2.38,2.38,0,0,0-.6-.89,25.93,25.93,0,0,0-2.45-2.35,5.58,5.58,0,0,0-2.83-1.52,5.19,5.19,0,0,0-2,.24,6,6,0,0,0-2.08.93c-1.55,1.19-2.15,4.06-.82,5.63A9.51,9.51,0,0,0,224.35,62.13Z"/><path class="cls-43" d="M217.25,43.71c.36.56,2.48,4.93,5.27,6.06.09-.53.1-2.06,1.17-2.18.32,0,.58.29.72.59a2.13,2.13,0,0,1,.14.94,4.83,4.83,0,0,1-1.05,2.8,13.9,13.9,0,0,0,3,5.32,6.24,6.24,0,0,0,1.83,1.45,7,7,0,0,0,2.59.11,25.66,25.66,0,0,1,8.05,1.25,12.81,12.81,0,0,0-.7-6.41,7.85,7.85,0,0,0-4.43-4.43,7.66,7.66,0,0,0-2.16-4.54,12.31,12.31,0,0,0-1.55-1.23,11.19,11.19,0,0,0-4.9-2.22,13.78,13.78,0,0,1-2.62-1.08,9.64,9.64,0,0,0-2.82-.7,8.24,8.24,0,0,0-2.93.56c-3.23,1-6.59,2.74-8,5.84a11.19,11.19,0,0,0-.76,5.17,6.65,6.65,0,0,0,1.09,3.84,7.14,7.14,0,0,0,3.52,7.85,8.33,8.33,0,0,0,8.79-.9,12.14,12.14,0,0,1-2.56-1.43,4.27,4.27,0,0,1-2.12-.2,6.6,6.6,0,0,1-2.93-2.2C213,57,208.65,48.44,217.25,43.71Z"/><path class="cls-46" d="M211.54,81.14c2.66-.33,5.09-1.31,7.74-1.66a23.66,23.66,0,0,0,6.1-2c2.47-1,5-1.54,7.51-2.4,2.05-.71,3.29-2.52,4.45-4.24,0,0,0-.06-.05,0-.93.84-1.65,1.86-2.62,2.65a10,10,0,0,1-4.26,1.85,44.16,44.16,0,0,0-6.1,1.61,89.47,89.47,0,0,1-12.77,4.18,0,0,0,0,0,0,0Z"/><path class="cls-46" d="M214.15,72.77c3.72-1.27,7.46-2.45,10.67-4.81,1.6-1.18,3.33-2.18,4.94-3.35a29.52,29.52,0,0,1,6.14-3.9s0-.08,0-.07a8.15,8.15,0,0,0-4.42,2c-1.85,1.33-3.91,2.35-5.79,3.66a60.61,60.61,0,0,1-11.55,6.41s0,.08,0,.07Z"/><path class="cls-46" d="M219.2,82c1.66,4.44,4.49,8.66,5.3,13.36,0,.05.08,0,.08,0,.56-4.94-3.22-9.28-5.34-13.37,0,0,0,0,0,0Z"/><path class="cls-46" d="M218.46,82.78c-.15,1.17.47,2.37.67,3.5a10.12,10.12,0,0,1,.19,3.55.14.14,0,0,0,.26.11c1.55-2.21-.52-5-1-7.17,0-.06-.09,0-.1,0Z"/><path class="cls-46" d="M210.43,82.62c-2,2.17-1.21,6.3,1.27,7.74.13.08.3-.08.21-.21a13.12,13.12,0,0,1-1.72-2.78,6.05,6.05,0,0,1,.34-4.68.06.06,0,0,0-.1-.07Z"/><path class="cls-46" d="M232.77,78.06c.81,2-.12,4.28-.15,6.26,0,.18.29.28.37.1a7.15,7.15,0,0,0-.13-6.39s-.11,0-.09,0Z"/><path class="cls-47" d="M193,129.25c1.24-3.39.63-7.29,1.92-10.64,0-.06-.07-.09-.11,0-1.06,1.47-1.25,3.59-1.54,5.34a36.59,36.59,0,0,0-.33,5.33s.05,0,.06,0Z"/><path class="cls-47" d="M217.61,100c-.6,1.16-1.25,2.29-2,3.42-1.26,2-1.75,5.37-4.13,6.45,0,0,0,.08,0,.07,2.49-.87,3.36-3.63,4.59-5.65a26.64,26.64,0,0,0,2.1-4.08l-.32-.11Z"/><path class="cls-47" d="M202.06,97.12c1.57.87,2.57,1.46,4.46,1.38a6.23,6.23,0,0,0,1.66-.24c.93-.3,1.21-.81,2-1.36a.07.07,0,0,0-.05-.12c-.8.2,0,0-.75.4a5.21,5.21,0,0,1-2.83.61,14.5,14.5,0,0,1-4.43-.75s-.08.06,0,.08Z"/><path class="cls-47" d="M222.5,102.28a3.22,3.22,0,0,0,.45,3,3.42,3.42,0,0,0,2.9.54,0,0,0,0,0,0-.06c-.44-.11-.93-.18-1.37-.3a4.21,4.21,0,0,1-1-.63c-.32-.23-.4-.75-.53-1.11s-.21-1-.38-1.48a0,0,0,0,0-.07,0Z"/><path class="cls-47" d="M191.44,132.78a7.33,7.33,0,0,1,.48-2.31,7.83,7.83,0,0,0,.64-1.3.18.18,0,0,0-.3-.18c-1.09.86-1.16,2.52-1,3.79a.12.12,0,0,0,.23,0Z"/><path class="cls-47" d="M192.83,129.41a2.5,2.5,0,0,0-.66,2.15,3.06,3.06,0,0,0,1.34,2.63c.09,0,.22,0,.18-.14a14.49,14.49,0,0,1-.87-2.21,5.19,5.19,0,0,1,.11-2.35c0-.05-.05-.11-.1-.08Z"/><path class="cls-47" d="M215.22,140.5c.12.53,1.18,1,1.6,1.16a2.83,2.83,0,0,0,2.69-.51.1.1,0,0,0,0-.19c-.68,0-1.38.21-2,.19a3.62,3.62,0,0,1-2-.76c-.08-.08-.2,0-.18.11Z"/><path class="cls-47" d="M215.53,142.29c.31.24.43.53.82.65a2.07,2.07,0,0,0,1.05,0,2.48,2.48,0,0,0,1.83-1.23c.05-.1,0-.26-.16-.21-.56.24-1,.62-1.62.8a2.77,2.77,0,0,1-.94.16c-.34,0-.6-.24-.93-.29-.07,0-.11.07-.05.11Z"/><path class="cls-47" d="M185.44,112.61c.66-.45,1.31-.91,2-1.37a8,8,0,0,1,2.65-1.2c.06,0,.07-.13,0-.14-1.84-.32-3.47,1.46-4.67,2.63,0,0,0,.12.06.08Z"/><path class="cls-47" d="M209.71,164.88c1.55,1.23,3.93,2.12,5.88,1.46a.1.1,0,0,0,0-.2c-.88-.3-1.8-.22-2.68-.47-1.06-.29-2.09-.56-3.12-.93-.08,0-.15.09-.08.14Z"/><path class="cls-46" d="M218.87,63.89c-.48,1.19-.29,3.42,1.08,4,.15.06.26-.11.24-.24a14.71,14.71,0,0,0-.7-1.57c-.23-.71-.21-1.49-.48-2.18a.08.08,0,0,0-.14,0Z"/><path class="cls-46" d="M219.29,63.71a3.64,3.64,0,0,0,1.13,2,3.39,3.39,0,0,0,2.32.78c.17,0,.28-.27.1-.36a10.53,10.53,0,0,1-2-.9,6.3,6.3,0,0,1-1.3-1.6.14.14,0,0,0-.26.11Z"/><path class="cls-46" d="M206.14,43.24c.34-.2.81-.21,1.16-.4a7,7,0,0,0,1-.55c.52-.37,1.28-.94,1.18-1.64,0-.19-.27-.17-.35,0a7.79,7.79,0,0,1-.69.83,3.72,3.72,0,0,1-.48.41c-.24.18-.56.26-.78.43a7.38,7.38,0,0,0-1.12.86.07.07,0,0,0,.08.11Z"/><path class="cls-46" d="M207,44.91c.28-.19.6-.22.85-.44s.33-.37.54-.54a3,3,0,0,0,.34-.28,5,5,0,0,0,1.07-1.85.14.14,0,0,0-.2-.15,1.67,1.67,0,0,0-.49.65,4.88,4.88,0,0,1-.82,1.05,12.88,12.88,0,0,0-1.42,1.44c0,.07.05.17.13.12Z"/><path class="cls-46" d="M172.54,111.89c-.81-3.21,4.06-6.3,6.08-8.06,1.23-1.06,2.44-2.11,3.6-3.25.21-.21,3.3-2.64,3.63-1.66,0,0,.08,0,.07,0v-.09s0,0,0,0a3.87,3.87,0,0,0-2.94.54c-2.05,1.4-3.81,3.36-5.82,4.85s-5.89,4.78-4.65,7.73c0,0,.08,0,.07,0Z"/><path class="cls-46" d="M206.49,175.76c1.88,2,2.93,4.46,4,6.91a6.73,6.73,0,0,0,3.25,3.74c.73.38,6.56,2.16,5.51-.47a.07.07,0,1,0-.14,0c.41,2.41-4.67,0-5.25-.42a8.4,8.4,0,0,1-3-3.74c-1.13-2.21-2.36-4.58-4.37-6.09,0,0,0,0,0,0Z"/><path class="cls-46" d="M245,61.68a0,0,0,0,0,0,0,0,0,0,0,0,0,0Z"/><path class="cls-46" d="M219.87,60s0,0,0,0,0,0,0,0Z"/><path class="cls-44" d="M219.88,60.06a4.82,4.82,0,0,0,4-4.65.07.07,0,0,0-.13,0,3.26,3.26,0,0,0-.43,1.08,4.38,4.38,0,0,1-1.11,2,7,7,0,0,1-1.35,1,5.8,5.8,0,0,0-1,.49c-.05,0,0,.1,0,.09Z"/></g></g></svg>